<svg width="65" height="52" viewBox="0 0 65 52" fill="none" xmlns="http://www.w3.org/2000/svg">
<g id="Github_icon">
<g id="EclipseBg" filter="url(#filter0_d_5_2124)">
<circle cx="32.5" cy="28" r="24" fill="white"/>
</g>
<path id="Vector" d="M32.5013 16C25.8706 15.9973 20.5 21.3652 20.5 27.9906C20.5 33.2298 23.8596 37.6834 28.5384 39.319C29.1685 39.4772 29.072 39.0294 29.072 38.7237V36.6457C25.4335 37.0721 25.2861 34.6643 25.0421 34.2621C24.5487 33.4202 23.3824 33.2057 23.7309 32.8035C24.5594 32.3772 25.404 32.9107 26.3827 34.3559C27.0905 35.4043 28.4714 35.2274 29.1712 35.0531C29.324 34.423 29.6512 33.8599 30.1016 33.4229C26.3318 32.7472 24.7605 30.4467 24.7605 27.7118C24.7605 26.3845 25.1976 25.1646 26.0556 24.1805C25.5086 22.5584 26.1065 21.1695 26.187 20.963C27.7448 20.8236 29.3643 22.0784 29.4903 22.1776C30.3751 21.939 31.3859 21.813 32.5174 21.813C33.6543 21.813 34.6678 21.9444 35.5607 22.1857C35.8636 21.9551 37.3652 20.8772 38.813 21.0086C38.8908 21.2151 39.4753 22.5718 38.9605 24.1725C39.8292 25.1592 40.2716 26.3899 40.2716 27.7198C40.2716 30.4601 38.6897 32.7633 34.9091 33.4282C35.2329 33.7467 35.49 34.1265 35.6654 34.5454C35.8408 34.9643 35.931 35.414 35.9307 35.8682V38.8846C35.9521 39.1259 35.9307 39.3645 36.3329 39.3645C41.0814 37.7638 44.5 33.2781 44.5 27.9933C44.5 21.3652 39.1267 16 32.5013 16Z" fill="#4DA8FF"/>
</g>
<defs>
<filter id="filter0_d_5_2124" x="0.5" y="0" width="64" height="64" filterUnits="userSpaceOnUse" color-interpolation-filters="sRGB">
<feFlood flood-opacity="0" result="BackgroundImageFix"/>
<feColorMatrix in="SourceAlpha" type="matrix" values="0 0 0 0 0 0 0 0 0 0 0 0 0 0 0 0 0 0 127 0" result="hardAlpha"/>
<feOffset dy="4"/>
<feGaussianBlur stdDeviation="4"/>
<feColorMatrix type="matrix" values="0 0 0 0 0.0611066 0 0 0 0 0.437703 0 0 0 0 0.793181 0 0 0 0.15 0"/>
<feBlend mode="normal" in2="BackgroundImageFix" result="effect1_dropShadow_5_2124"/>
<feBlend mode="normal" in="SourceGraphic" in2="effect1_dropShadow_5_2124" result="shape"/>
</filter>
</defs>
</svg>
