<svg width="65" height="52" viewBox="0 0 65 52" fill="none" xmlns="http://www.w3.org/2000/svg">
<g id="Instagram_icon">
<g id="EclipseBg" filter="url(#filter0_d_5_2122)">
<circle cx="32.5" cy="28" r="24" fill="white"/>
</g>
<path id="Vector" d="M32.497 23.9983C30.2935 23.9983 28.4953 25.7965 28.4953 28C28.4953 30.2035 30.2935 32.0017 32.497 32.0017C34.7005 32.0017 36.4987 30.2035 36.4987 28C36.4987 25.7965 34.7005 23.9983 32.497 23.9983ZM44.4991 28C44.4991 26.3429 44.5141 24.7008 44.4211 23.0467C44.328 21.1254 43.8897 19.4202 42.4847 18.0153C41.0768 16.6073 39.3746 16.172 37.4533 16.0789C35.7962 15.9859 34.1541 16.0009 32.5 16.0009C30.8429 16.0009 29.2008 15.9859 27.5467 16.0789C25.6254 16.172 23.9202 16.6103 22.5153 18.0153C21.1073 19.4232 20.672 21.1254 20.5789 23.0467C20.4859 24.7038 20.5009 26.3459 20.5009 28C20.5009 29.6541 20.4859 31.2992 20.5789 32.9533C20.672 34.8746 21.1103 36.5798 22.5153 37.9847C23.9232 39.3927 25.6254 39.828 27.5467 39.9211C29.2038 40.0141 30.8459 39.9991 32.5 39.9991C34.1571 39.9991 35.7992 40.0141 37.4533 39.9211C39.3746 39.828 41.0798 39.3897 42.4847 37.9847C43.8927 36.5768 44.328 34.8746 44.4211 32.9533C44.5171 31.2992 44.4991 29.6571 44.4991 28ZM32.497 34.1572C29.0897 34.1572 26.3398 31.4073 26.3398 28C26.3398 24.5927 29.0897 21.8428 32.497 21.8428C35.9043 21.8428 38.6542 24.5927 38.6542 28C38.6542 31.4073 35.9043 34.1572 32.497 34.1572ZM38.9063 23.0286C38.1108 23.0286 37.4684 22.3862 37.4684 21.5907C37.4684 20.7951 38.1108 20.1527 38.9063 20.1527C39.7019 20.1527 40.3443 20.7951 40.3443 21.5907C40.3445 21.7796 40.3075 21.9667 40.2353 22.1412C40.1631 22.3158 40.0572 22.4744 39.9237 22.608C39.7901 22.7416 39.6315 22.8475 39.4569 22.9197C39.2823 22.9918 39.0952 23.0289 38.9063 23.0286Z" fill="#4DA8FF"/>
</g>
<defs>
<filter id="filter0_d_5_2122" x="0.5" y="0" width="64" height="64" filterUnits="userSpaceOnUse" color-interpolation-filters="sRGB">
<feFlood flood-opacity="0" result="BackgroundImageFix"/>
<feColorMatrix in="SourceAlpha" type="matrix" values="0 0 0 0 0 0 0 0 0 0 0 0 0 0 0 0 0 0 127 0" result="hardAlpha"/>
<feOffset dy="4"/>
<feGaussianBlur stdDeviation="4"/>
<feColorMatrix type="matrix" values="0 0 0 0 0.0611066 0 0 0 0 0.437703 0 0 0 0 0.793181 0 0 0 0.15 0"/>
<feBlend mode="normal" in2="BackgroundImageFix" result="effect1_dropShadow_5_2122"/>
<feBlend mode="normal" in="SourceGraphic" in2="effect1_dropShadow_5_2122" result="shape"/>
</filter>
</defs>
</svg>
